#!OML:ASF F:\VICON\USERDATA\INSTALL\Justin_Nancy\Justin_Nancy.ASF
:FULLY-SPECIFIED
:DEGREES
423
root 4.64737 17.3596 14.7664 107.065 86.0683 103.773
lowerback 7.65611 -1.09431 -5.99839
upperback 0.0355957 -1.90945 1.62726
thorax -4.0111 -0.809987 5.28679
lowerneck -17.0697 -3.53173 -9.78796
upperneck 22.0711 -3.0145 4.10205
head 10.086 -1.66843 2.67848
rclavicle -4.29375e-014 1.03368e-014
rhumerus -34.9128 -27.0911 -70.5375
rradius 22.7143
rwrist 16.6902
rhand -14.4143 10.521
rfingers 7.12502
rthumb 11.7296 -19.1306
lclavicle -4.29375e-014 1.03368e-014
lhumerus -25.5402 4.96021 86.5573
lradius 37.8956
lwrist 1.05747
lhand -23.1557 27.0646
lfingers 7.12502
lthumb 3.29271 57.019
rfemur -28.6703 3.53971 12.3796
rtibia 21.0856
rfoot -2.30378 -4.63481
rtoes 6.90083
lfemur 8.00825 -3.3461 -26.9899
ltibia 20.4266
lfoot -12.1994 0.371191
ltoes -17.8881
424
root 4.83246 17.3614 14.7673 93.8212 85.4595 91.2382
lowerback 7.85951 -0.83482 -6.45634
upperback 0.298243 -1.6174 1.38942
thorax -3.88425 -0.668355 5.2673
lowerneck -17.1895 -3.46487 -9.98966
upperneck 22.1354 -2.8758 4.19941
head 10.1262 -1.61025 2.76645
rclavicle 5.86415e-015 -1.74931e-014
rhumerus -35.1183 -26.7301 -70.5054
rradius 23.1105
rwrist 16.663
rhand -14.6615 10.372
rfingers 7.12502
rthumb 11.4912 -19.2931
lclavicle 5.86415e-015 -1.74931e-014
lhumerus -25.5546 7.5738 85.7006
lradius 36.7543
lwrist -3.72882
lhand -17.3533 22.5033
lfingers 7.12502
lthumb 8.89442 52.2959
rfemur -27.661 3.28443 12.0192
rtibia 21.3359
rfoot -1.67726 -2.7849
rtoes 10.2327
lfemur 8.78268 -3.58044 -28.2224
ltibia 21.7072
lfoot -11.522 1.15739
ltoes -19.0613
425
root 5.00719 17.3721 14.8405 95.2082 85.4213 92.396
lowerback 7.38244 -0.905734 -7.05999
upperback 0.226421 -1.72893 1.55836
thorax -3.65427 -0.720182 5.78658
lowerneck -17.2213 -3.34336 -9.73391
upperneck 22.0472 -2.70005 3.89606
head 10.0782 -1.54196 2.63867
rclavicle 2.68359e-015 -7.95139e-016
rhumerus -35.3636 -26.6494 -70.4923
rradius 23.503
rwrist 16.6031
rhand -15.1245 10.1489
rfingers 7.12502
rthumb 11.0447 -19.5405
lclavicle 2.68359e-015 -7.95139e-016
lhumerus -25.7982 7.98871 85.8188
lradius 36.436
lwrist -2.56547
lhand -18.9776 22.803
lfingers 7.12502
lthumb 7.32681 52.6562
rfemur -27.4959 2.70937 12.6046
rtibia 21.3132
rfoot -0.69274 -2.42134
rtoes 5.45828
lfemur 8.16432 -3.92747 -28.0786
ltibia 23.234
lfoot -10.6919 0.880234
ltoes -20.4346
426
root 5.17447 17.4129 14.8524 82.6846 86.9642 80.1379
lowerback 7.5124 -0.713737 -5.16633
upperback 0.257746 -1.3058 1.82737
thorax -3.79146 -0.535627 4.95442
lowerneck -17.1541 -3.27489 -9.14889
upperneck 21.9779 -2.66163 3.43576
head 10.0213 -1.52789 2.38257
rclavicle 2.28602e-015 1.98785e-014
rhumerus -35.3817 -26.2386 -70.7301
rradius 23.2488
rwrist 15.9245
rhand -15.1576 10.1084
rfingers 7.12502
rthumb 11.0127 -19.5827
lclavicle 2.28602e-015 1.98785e-014
lhumerus -26.1425 8.83278 85.5866
lradius 36.0709
lwrist -2.70084
lhand -20.0819 23.1995
lfingers 7.12502
lthumb 6.26071 53.087
rfemur -26.8887 3.79899 14.2416
rtibia 21.8491
rfoot -0.905107 -2.77746
rtoes 11.0962
lfemur 8.43592 -3.99265 -26.4896
ltibia 24.2535
lfoot -9.53746 0.935036
ltoes -19.7268
427
root 5.35034 17.4423 14.8834 72.4775 86.8298 69.8524
lowerback 7.16226 -0.56996 -5.18054
upperback 0.21249 -1.10021 1.83551
thorax -3.66704 -0.436841 4.94267
lowerneck -17.1988 -3.23167 -9.10986
upperneck 22.051 -2.57626 3.31663
head 10.0482 -1.49937 2.34623
rclavicle 7.95139e-016 8.74653e-015
rhumerus -35.338 -25.9397 -70.7301
rradius 22.9973
rwrist 15.6642
rhand -15.2731 10.2081
rfingers 7.12502
rthumb 10.9013 -19.489
lclavicle 7.95139e-016 8.74653e-015
lhumerus -26.5162 9.96858 85.28
lradius 35.6164
lwrist -3.52767
lhand -20.2264 23.4644
lfingers 7.12502
lthumb 6.12125 53.3559
rfemur -26.6261 4.12196 14.4137
rtibia 22.2013
rfoot -0.831375 -2.71214
rtoes 11.2406
lfemur 8.1761 -4.48941 -26.6842
ltibia 25.4997
lfoot -8.16168 1.26311
ltoes -18.9623
428
root 5.5527 17.4569 14.9009 66.123 86.3986 63.6705
lowerback 6.66166 -0.435949 -5.18208
upperback 0.346946 -0.900832 1.67857
thorax -3.27281 -0.354655 4.74713
lowerneck -17.3249 -3.23616 -9.13267
upperneck 22.1218 -2.56959 3.33896
head 10.0975 -1.4961 2.35889
rclavicle -9.54166e-015 1.51076e-014
rhumerus -35.6575 -26.5631 -70.4181
rradius 23.2843
rwrist 16.0527
rhand -15.3786 10.2246
rfingers 7.12502
rthumb 10.7996 -19.4777
lclavicle -9.54166e-015 1.51076e-014
lhumerus -26.8063 10.1666 85.0504
lradius 35.141
lwrist -3.68273
lhand -20.9237 24.0362
lfingers 7.12502
lthumb 5.44804 53.9462
rfemur -26.1068 3.95773 14.3353
rtibia 22.6272
rfoot -0.912959 -1.90839
rtoes 10.6066
lfemur 8.21814 -5.31228 -27.5641
ltibia 26.7468
lfoot -6.47157 2.32641
ltoes -20.2751
429
root 5.76148 17.4745 14.9073 59.5348 86.088 57.5158
lowerback 6.41169 -0.312561 -4.71014
upperback 0.540452 -0.694086 1.41582
thorax -2.96466 -0.272651 4.17937
lowerneck -17.4719 -3.20481 -9.00333
upperneck 22.2303 -2.57025 3.42091
head 10.1619 -1.47672 2.36711
rclavicle -2.45996e-014 7.15625e-015
rhumerus -35.8104 -26.3255 -70.6206
rradius 23.4727
rwrist 16.2786
rhand -15.1715 10.0629
rfingers 7.12502
rthumb 10.9993 -19.6289
lclavicle -2.45996e-014 7.15625e-015
lhumerus -27.1453 10.0103 84.6569
lradius 34.804
lwrist -3.03523
lhand -21.6961 24.4133
lfingers 7.12502
lthumb 4.7022 54.3411
rfemur -25.3114 4.09142 14.2974
rtibia 23.2053
rfoot -1.28128 -1.03438
rtoes 11.6619
lfemur 8.33121 -5.58417 -28.1503
ltibia 28.2608
lfoot -4.77206 2.82694
ltoes -20.9245
430
root 5.94215 17.4905 14.943 60.4535 85.6005 58.5413
lowerback 6.19601 -0.279362 -5.15655
upperback 0.564664 -0.675568 1.26534
thorax -2.81746 -0.263864 4.27011
lowerneck -17.4987 -3.19745 -9.19499
upperneck 22.159 -2.56968 3.67417
head 10.147 -1.46287 2.48835
rclavicle -1.28713e-014 -1.27222e-014
rhumerus -35.9359 -25.9838 -70.5853
rradius 23.7216
rwrist 17.3771
rhand -14.1027 10.1686
rfingers 7.12502
rthumb 12.0301 -19.4656
lclavicle -1.28713e-014 -1.27222e-014
lhumerus -27.5278 10.7725 84.3109
lradius 34.4217
lwrist -3.14158
lhand -34.231 31.239
lfingers 7.12502
lthumb -7.40251 61.0895
rfemur -24.8739 4.09573 14.0389
rtibia 23.6937
rfoot -1.24199 -0.508262
rtoes 11.8812
lfemur 7.68665 -5.24007 -28.5454
ltibia 29.998
lfoot -2.73786 2.18145
ltoes -21.5766
431
root 6.07414 17.4956 15.0238 68.9973 85.6931 66.7026
lowerback 6.08672 -0.406886 -6.04141
upperback 0.347918 -0.902611 1.42996
thorax -2.94048 -0.35713 4.96359
lowerneck -17.4994 -3.23951 -9.37605
upperneck 22.0201 -2.59555 3.73952
head 10.1034 -1.48155 2.536
rclavicle -2.38542e-015 0
rhumerus -36.1305 -26.9691 -69.9138
rradius 23.8287
rwrist 18.85
rhand -13.081 10.5817
rfingers 7.12502
rthumb 13.0151 -18.9923
lclavicle -2.38542e-015 0
lhumerus -27.7515 11.5433 84.2188
lradius 33.8384
lwrist -3.21571
lhand -38.0682 32.7425
lfingers 7.12502
lthumb -11.1051 62.4286
rfemur -24.7951 3.41047 14.4956
rtibia 23.8774
rfoot -0.944324 -2.35875
rtoes 24.7115
lfemur 6.09059 -5.01813 -27.9568
ltibia 32.1214
lfoot -0.477518 0.676467
ltoes -20.5506
432
root 6.2246 17.5512 15.0768 70.6495 86.6449 68.3523
lowerback 6.30666 -0.498757 -5.411
upperback 0.195105 -0.986778 1.72528
thorax -3.21694 -0.39309 4.92875
lowerneck -17.5511 -3.28313 -9.29787
upperneck 22.1835 -2.6349 3.59889
head 10.1723 -1.51039 2.46912
rclavicle -7.95139e-015 9.54166e-015
rhumerus -36.4573 -27.5377 -69.4961
rradius 23.9447
rwrist 19.0849
rhand -12.5796 11.0295
rfingers 7.12502
rthumb 13.4985 -18.5131
lclavicle -7.95139e-015 9.54166e-015
lhumerus -28.1125 11.4222 84.1481
lradius 33.2743
lwrist -2.59854
lhand -35.9221 30.3975
lfingers 7.12502
lthumb -9.03459 60.184
rfemur -23.9142 4.23935 15.2381
rtibia 23.7629
rfoot -1.82544 -3.14776
rtoes 33.0418
lfemur 4.83914 -4.74828 -26.4528
ltibia 34.4435
lfoot 1.93556 -0.502369
ltoes -19.1102
433
root 6.38715 17.5761 15.1135 67.6171 87.4675 65.4221
lowerback 6.40506 -0.580833 -4.46914
upperback 0.127886 -1.02835 1.82711
thorax -3.35045 -0.42177 4.50697
lowerneck -17.5754 -3.33167 -9.20415
upperneck 22.2973 -2.74049 3.6523
head 10.2241 -1.54573 2.45912
rclavicle -1.10325e-014 2.06736e-014
rhumerus -36.3515 -26.9063 -70.0228
rradius 24.0297
rwrist 17.1348
rhand -12.5451 11.0441
rfingers 7.12502
rthumb 13.5316 -18.4962
lclavicle -1.10325e-014 2.06736e-014
lhumerus -28.4581 11.4286 83.8612
lradius 32.7483
lwrist -2.67793
lhand -29.6681 27.2328
lfingers 7.12502
lthumb -2.99698 57.1915
rfemur -22.975 4.4686 16.3176
rtibia 23.4768
rfoot -1.93275 -3.3345
rtoes 34.6065
lfemur 3.60449 -4.09037 -25.0953
ltibia 36.8171
lfoot 4.38139 -1.63428
ltoes -17.2253
434
root 6.55362 17.5806 15.1438 64.1234 87.9752 62.0562
lowerback 6.42597 -0.684265 -3.8681
upperback 0.104888 -1.118 1.92232
thorax -3.38508 -0.473463 4.27414
lowerneck -17.4504 -3.3062 -9.27898
upperneck 22.1345 -2.72474 3.75714
head 10.1431 -1.532 2.50989
rclavicle 1.09332e-014 -5.56597e-015
rhumerus -36.1188 -26.1613 -70.6329
rradius 24.1375
rwrist 14.912
rhand -13.6754 10.6618
rfingers 7.12502
rthumb 12.4421 -18.9478
lclavicle 1.09332e-014 -5.56597e-015
lhumerus -28.8453 11.9834 83.4904
lradius 32.3861
lwrist -3.09367
lhand -21.042 23.9712
lfingers 7.12502
lthumb 5.3338 53.8841
rfemur -22.0095 4.14415 17.3732
rtibia 22.9579
rfoot -1.55518 -3.60422
rtoes 34.1221
lfemur 2.38224 -3.92462 -24.3259
ltibia 39.1486
lfoot 6.96875 -2.3336
ltoes -15.7771
435
root 6.7195 17.6249 15.1755 57.7932 88.3823 55.8415
lowerback 6.49729 -0.694406 -3.3922
upperback 0.051651 -1.09309 2.03113
thorax -3.48929 -0.464028 4.11816
lowerneck -17.2189 -3.30714 -9.22931
upperneck 21.9353 -2.76443 3.75759
head 10.0298 -1.54535 2.49509
rclavicle 1.33186e-014 -1.11319e-014
rhumerus -36.123 -26.1215 -70.7702
rradius 24.1678
rwrist 14.5794
rhand -14.8031 10.5161
rfingers 7.12502
rthumb 11.3547 -19.1565
lclavicle 1.33186e-014 -1.11319e-014
lhumerus -29.2035 12.0177 83.2944
lradius 31.8686
lwrist -3.29131
lhand -15.7799 21.8098
lfingers 7.12502
lthumb 10.4125 51.532
rfemur -20.7931 5.27689 17.7082
rtibia 22.2826
rfoot -2.36735 -4.38265
rtoes 38.9522
lfemur 1.2369 -4.21593 -23.7488
ltibia 41.4094
lfoot 9.59034 -3.03025
ltoes -13.9791
436
root 6.88148 17.6444 15.2104 38.7458 88.9905 36.9519
lowerback 6.64953 -0.701625 -2.56026
upperback -0.0144932 -1.03343 2.18961
thorax -3.66032 -0.441472 3.81102
lowerneck -17.1906 -3.38092 -9.34808
upperneck 22.0244 -2.85285 3.82976
head 10.0664 -1.58834 2.5295
rclavicle 1.19271e-014 -2.54444e-014
rhumerus -36.1647 -25.319 -71.0846
rradius 24.4531
rwrist 14.262
rhand -14.3981 10.5893
rfingers 7.12502
rthumb 11.7453 -19.0614
lclavicle 1.19271e-014 -2.54444e-014
lhumerus -29.5849 10.8402 83.5408
lradius 31.3347
lwrist -3.52194
lhand -17.2418 22.5679
lfingers 7.12502
lthumb 9.00202 52.3558
rfemur -19.6751 5.57664 18.7726
rtibia 21.6783
rfoot -2.54381 -4.81412
rtoes 40.7698
lfemur 0.13169 -4.36553 -22.7876
ltibia 43.6764
lfoot 12.1657 -3.92618
ltoes -9.46745
